<svg width="92" height="92" viewBox="0 0 122 92" fill="none" xmlns="http://www.w3.org/2000/svg">
  <line x1="93.5" y1="70.7" x2="28.2" y2="70.7" fill="#7c3aed" stroke="#7c3aed" stroke-width="4" stroke-linecap="square" stroke-miterlimit="10"/>
  <path fill="#7c3aed" d="M119.2,41.9L80.5,3.3c-1.1-1.2-2.7-1.8-4.3-1.8c-1.6,0-3.2,0.6-4.3,1.8L55.8,19.4l-25.6,0
    c-0.7-2.4-2.9-4.2-5.5-4.2c-3.2,0-5.8,2.6-5.8,5.8s2.6,5.8,5.8,5.8c2.3,0,4.3-1.4,5.2-3.3l21.9,0l-9,9H20.5
    c-0.8-2.1-2.9-3.7-5.4-3.7c-3.2,0-5.7,2.6-5.7,5.8s2.6,5.8,5.7,5.8c2.5,0,4.6-1.6,5.4-3.8h18.2l-5.5,5.5c-0.6,0.6-1.1,1.4-1.4,2.1
    H12.3c-0.8-2.2-2.9-3.8-5.4-3.8c-3.2,0-5.7,2.6-5.7,5.8s2.6,5.8,5.7,5.8c2.4,0,4.5-1.5,5.4-3.7h19.5c0.3,0.9,0.8,1.8,1.5,2.5
    l5.2,5.2H18.5c-0.9-2.1-2.9-3.5-5.3-3.5c-3.2,0-5.8,2.6-5.8,5.8s2.6,5.8,5.8,5.8c2.6,0,4.7-1.7,5.5-4h23.7l29.5,29.5
    c1.1,1.1,2.7,1.8,4.3,1.8c1.6,0,3.2-0.6,4.3-1.8l38.7-38.7c1.1-1.1,1.8-2.7,1.8-4.3S120.3,43.1,119.2,41.9z M75.4,6.8
    c0.3-0.3,0.6-0.3,0.8-0.3c0.2,0,0.5,0,0.8,0.3l12.6,12.6l-26.7,0L75.4,6.8z M58.8,23.4l34.7,0l9,9H49.8L58.8,23.4z M45.8,36.4
    h60.7l7.7,7.7H38.2L45.8,36.4z M37.8,48.1h76.7l-7.7,7.7H45.5L37.8,48.1z M77,85.7C76.7,86,76.4,86,76.2,86c-0.2,0-0.5,0-0.8-0.3
    L49.5,59.7h53.4L77,85.7z"/>
  <circle fill="#7c3aed" cx="24.5" cy="70.5" r="5.8"/>
</svg>
